<svg width="3750" height="3423" viewBox="0 0 3750 3423" fill="none" xmlns="http://www.w3.org/2000/svg">
<path d="M1629.82 868.265C1614.92 733.246 1628.32 619.272 1669.7 529.338C1687.74 488.043 1713.91 450.806 1746.66 419.848C1779.4 388.891 1818.05 364.848 1860.29 349.155C1946.99 316.287 2051.51 312.897 2171.31 339.066C2295.38 366.574 2430.32 424.034 2572.43 510.815C2723.75 604.578 2864.22 714.81 2991.28 839.495C3123.32 967.714 3243.24 1107.85 3349.52 1258.11C3451.63 1400.76 3538.97 1553.44 3610.18 1713.77C3678.67 1870.62 3720.52 2018.57 3735.82 2153.59C3751.11 2288.6 3737.23 2402.58 3695.93 2492.51C3655.97 2579.21 3591.89 2639.91 3505.27 2672.7C3418.64 2705.48 3314.05 2708.95 3194.24 2682.78C3070.26 2655.75 2935.24 2597.97 2793.13 2511.27C2641.97 2417.42 2501.63 2307.16 2374.67 2182.51C2242.63 2054.29 2122.71 1914.16 2016.43 1763.9C1914.3 1621.26 1826.96 1468.58 1755.77 1308.24C1687.36 1151.47 1645.43 1003.44 1630.21 868.422L1629.82 868.265ZM1625.17 865.427C1686.33 1420.4 2209.46 2159.42 2793.68 2516C3377.89 2872.58 3801.55 2711.63 3740.07 2156.66C3678.59 1601.69 3156.17 862.668 2571.96 506.007C1987.74 149.346 1563.69 310.218 1624.77 865.269L1625.17 865.427Z" stroke="#003061" stroke-width="7"/>
<path d="M1606.17 830.668C1600.42 694.94 1622.88 582.148 1672.86 495.525C1695.58 454.994 1726.15 419.398 1762.78 390.816C1799.42 362.234 1841.38 341.238 1886.22 329.056C1979.55 302.336 2089.74 306.277 2213.64 340.722C2341.88 376.349 2479.34 443.188 2622.25 539.822C2773.32 643.299 2912.56 763.063 3037.47 896.956C3166.19 1033.37 3281.85 1181.55 3382.94 1339.53C3479.34 1488.33 3559.87 1646.84 3623.18 1812.45C3683.56 1973.64 3717.06 2124.27 3722.73 2259.99C3728.41 2395.72 3706.02 2508.43 3656.05 2595.14C3633.32 2635.68 3602.74 2671.28 3566.09 2699.86C3529.44 2728.45 3487.46 2749.44 3442.61 2761.61C3349.36 2788.33 3239.17 2784.38 3115.27 2749.94C2987.03 2714.31 2849.56 2647.47 2706.66 2550.84C2555.59 2447.36 2416.35 2327.6 2291.44 2193.71C2162.72 2057.29 2047.06 1909.12 1945.97 1751.13C1849.56 1602.33 1769.04 1443.82 1705.72 1278.21C1645.35 1117.02 1611.85 966.396 1606.17 830.668V830.668ZM1601.13 827.279C1624.78 1385.17 2119.61 2158.87 2706.9 2555.41C3294.19 2951.96 3751.27 2821.04 3727.78 2263.15C3704.29 1705.26 3209.3 931.479 2622.01 535.014C2034.72 138.548 1577.64 269.389 1601.13 827.279V827.279Z" stroke="#003061" stroke-width="7"/>
<path d="M1584.03 791.495C1588.05 655.767 1619.89 544.788 1678.61 461.79C1735.44 381.63 1814.89 330.791 1915.07 310.613C2015.25 290.435 2130.41 302.101 2258.02 345.136C2390.04 389.591 2529.47 466.047 2672.45 572.217C2822.76 685.255 2960.21 814.454 3082.32 957.491C3206.9 1101.73 3317.43 1257.53 3412.42 1422.77C3502.39 1577.28 3575.26 1741.15 3629.73 1911.45C3681.35 2076.5 3705.47 2229.02 3701.45 2364.83C3697.43 2500.63 3665.67 2611.53 3606.87 2694.53C3550.04 2774.69 3470.51 2825.53 3370.41 2845.71C3270.31 2865.89 3155.07 2854.22 3027.54 2811.26C2895.44 2766.73 2756 2690.27 2613.1 2584.1C2462.83 2471.05 2325.39 2341.88 2203.24 2198.91C2078.63 2054.51 1968.05 1898.59 1872.98 1733.24C1782.98 1578.84 1710.04 1415.11 1655.44 1244.95C1603.89 1079.9 1579.77 927.381 1583.71 791.574L1584.03 791.495ZM1578.67 787.869C1562.35 1346.07 2025.34 2152.4 2612.95 2588.91C3200.55 3025.42 3690.42 2926.66 3706.73 2368.61C3723.05 1810.56 3260.06 1003.92 2672.53 567.409C2085.01 130.903 1595.38 229.586 1578.98 788.106L1578.67 787.869Z" stroke="#003061" stroke-width="7"/>
<path d="M1563.69 750.898C1577.88 615.722 1619.49 507.265 1687.36 428.603C1752.94 352.62 1840.11 307.377 1946.6 294.608C2053.08 281.839 2173.28 301.071 2304.13 352.935C2439.54 406.533 2580 492.526 2722.66 608.391C2871.35 730.899 3006.15 869.347 3124.64 1021.25C3244.42 1173.22 3349.11 1336.49 3437.24 1508.75C3524.5 1679.24 3589.29 1848.39 3629.72 2010.76C3671.73 2178.96 3685.92 2332.82 3671.73 2467.92C3657.55 2603.02 3616.01 2711.55 3548.07 2790.21C3482.57 2866.27 3395.31 2911.44 3288.9 2924.21C3182.5 2936.98 3062.14 2917.74 2931.38 2865.96C2795.96 2812.28 2655.11 2726.37 2512.84 2610.42C2364.11 2487.96 2229.31 2349.51 2110.86 2197.56C1991.06 2045.61 1886.36 1882.34 1798.26 1710.06C1711.08 1539.26 1646.29 1370.27 1605.7 1207.74C1563.61 1039.54 1549.5 885.681 1563.61 750.583L1563.69 750.898ZM1558.64 746.484C1500.47 1302.17 1927.44 2138.84 2512.37 2615.31C3097.29 3091.78 3618.77 3027.78 3677.02 2472.1C3735.26 1916.41 3308.06 1079.74 2723.29 603.032C2138.52 126.327 1616.89 191.117 1558.72 746.8L1558.64 746.484Z" stroke="#003061" stroke-width="7"/>
<path d="M1545.32 708.968C1570.15 574.974 1621.78 469.828 1698.87 396.052C1773.27 325.114 1868.17 285.704 1980.88 280.186C2093.6 274.669 2218.84 302.492 2352.05 363.263C2490.3 426.319 2631.86 521.77 2772.79 647.016C2919.26 778.852 3050.69 926.487 3164.69 1087.23C3278.85 1246.44 3376.82 1416.67 3457.11 1595.38C3535.93 1771.86 3591.73 1944.95 3622.63 2109.92C3654.16 2280.64 3657.94 2435.05 3633.19 2568.97C3608.44 2702.88 3556.74 2808.11 3479.65 2881.88C3405.24 2952.82 3310.35 2992.23 3197.63 2997.75C3084.92 3003.27 2959.75 2975.52 2826.31 2914.67C2688.06 2851.62 2546.5 2756.17 2405.57 2630.92C2259.21 2499.05 2127.86 2351.42 2013.91 2190.71C1899.68 2031.6 1801.64 1861.48 1721.25 1682.87C1642.43 1506.39 1586.63 1333.3 1555.73 1168.41C1524.2 997.608 1520.42 843.199 1545.17 709.284L1545.32 708.968ZM1540.2 704.87C1438.37 1255.11 1825.29 2119.61 2404.54 2635.96C2983.79 3152.32 3535.93 3124.65 3637.84 2574.01C3739.76 2023.37 3352.91 1158.72 2773.66 642.444C2194.41 126.172 1642.27 154.31 1540.36 704.554L1540.2 704.87Z" stroke="#003061" stroke-width="7"/>
<path d="M1529.17 666.091C1565.03 534.304 1626.99 432.862 1713.29 364.683C1796.69 298.789 1899.23 266.552 2018.01 268.758C2136.8 270.965 2265.9 307.538 2401.63 377.53C2542.01 449.73 2683.89 554.955 2822.61 689.737C2965.99 830.51 3093.15 986.891 3201.74 1155.96C3309.62 1321.95 3400.04 1498.66 3471.54 1683.27C3541.53 1864.55 3587.24 2041.35 3607.42 2208.05C3628.23 2380.59 3620.59 2534.92 3584.8 2666.71C3549.02 2798.49 3486.91 2899.93 3400.6 2968.11C3317.21 3034.01 3214.66 3066.32 3095.88 3064.12C2977.1 3061.91 2848.07 3025.26 2712.26 2955.34C2571.73 2882.91 2430.09 2777.68 2291.36 2642.59C2147.98 2501.83 2020.79 2345.47 1912.16 2176.44C1804.33 2010.42 1713.92 1833.71 1642.36 1649.14C1572.36 1467.85 1526.65 1290.98 1506.55 1124.35C1485.82 952.051 1493.7 797.721 1529.17 666.091ZM1524.28 661.362C1376.89 1203.17 1719.76 2092.5 2290.1 2647.63C2860.44 3202.76 3442.29 3213.72 3589.69 2671.83C3737.08 2129.94 3394.21 1240.69 2823.87 685.56C2253.53 130.429 1671.68 119.315 1524.28 661.125V661.362Z" stroke="#003061" stroke-width="7"/>
<path d="M1515.29 621.792C1562.58 492.763 1635.18 395.893 1730.78 333.861C1823.24 274.037 1933.27 248.972 2057.81 259.455C2182.35 269.938 2315.24 315.417 2452.7 394.711C2594.97 476.762 2735.9 591.761 2871.71 736.002C3011.22 885.547 3133.3 1050.44 3235.62 1227.52C3336.24 1399.9 3418.16 1582.54 3479.96 1772.33C3540.18 1958.35 3575.18 2137.66 3584.08 2305.31C3593.31 2478.72 3574 2632.34 3526.62 2761.37C3479.25 2890.39 3406.82 2987.19 3311.13 3049.22C3218.75 3109.12 3108.72 3134.11 2984.18 3123.62C2859.65 3113.14 2726.76 3067.66 2589.29 2988.37C2447.42 2906.32 2306.01 2791.32 2170.29 2647.08C2030.82 2497.62 1908.79 2332.8 1806.53 2155.79C1705.94 1983.39 1624.03 1800.76 1562.19 1610.99C1502.05 1424.97 1467.05 1245.65 1458.15 1078C1448.92 904.598 1468.23 750.978 1515.53 622.028L1515.29 621.792ZM1510.8 616.905C1315.95 1146.89 1610.66 2057.97 2168.79 2651.57C2726.91 3245.16 3337.14 3296.63 3531.67 2766.41C3726.2 2236.19 3431.49 1325.1 2873.05 731.509C2314.61 137.914 1705.09 86.4448 1510.56 616.668L1510.8 616.905Z" stroke="#003061" stroke-width="7"/>
<path d="M1504.04 576.785C1563.23 451.382 1646.47 359.872 1751.46 304.619C1852.9 251.337 1970.26 233.681 2100.31 253.149C2230.37 272.618 2366.49 327.162 2504.98 415.677C2648.35 507.423 2787.94 631.88 2920.36 785.422C3055.28 943.343 3171.42 1116.38 3266.46 1301.06C3359.22 1479.33 3431.92 1667.33 3483.21 1861.63C3532.79 2051.35 3556.36 2232.72 3553.44 2400.61C3550.37 2574.4 3518.76 2726.05 3459.65 2851.46C3400.53 2976.86 3316.83 3068.37 3211.99 3123.54C3110.63 3176.91 2993.19 3194.48 2863.22 3175.01C2733.24 3155.55 2596.72 3101.63 2458.24 3012.57C2314.86 2920.74 2175.27 2796.36 2043.33 2642.82C1908.39 2484.92 1792.24 2311.88 1697.23 2127.18C1604.44 1948.92 1531.72 1760.91 1480.39 1566.61C1430.89 1376.81 1407.25 1195.52 1410.24 1027.64C1413.32 853.838 1444.85 702.109 1504.04 576.785V576.785ZM1499.39 571.347C1256.15 1086.67 1498.76 2016.12 2041.2 2647.23C2583.64 3278.35 3220.66 3372.22 3464.22 2857.29C3707.77 2342.36 3464.85 1412.52 2922.33 781.324C2379.81 150.131 1742.63 56.02 1499.39 571.504V571.347Z" stroke="#003061" stroke-width="7"/>
<path d="M1495.43 531.072C1566.76 410.162 1660.95 324.642 1775.24 276.877C1885.59 230.767 2010.2 221.703 2145.7 249.921C2281.19 278.138 2419.75 342.14 2558.63 440.193C2702.48 541.792 2839.94 675.629 2967.24 837.998C3096.76 1003.95 3206.04 1184.75 3292.77 1376.58C3376.86 1560.15 3439.36 1752.87 3479.02 1950.86C3517.09 2143.58 3528.52 2326.12 3513.15 2493.38C3497.38 2666.78 3452.85 2815.68 3381.52 2936.66C3310.18 3057.65 3215.99 3143.09 3101.71 3190.86C2991.36 3236.89 2866.74 3246.03 2731.64 3217.82C2596.55 3189.6 2457.51 3125.6 2318.63 3027.54C2174.78 2925.95 2037.32 2792.11 1910.02 2629.74C1780.53 2463.76 1671.25 2282.97 1584.5 2091.16C1500.36 1907.58 1437.78 1714.87 1398.01 1516.88C1359.94 1324.16 1348.43 1141.61 1363.88 974.357C1379.64 800.953 1424.1 652.061 1495.43 531.072V531.072ZM1490.94 525.397C1197.72 1022.52 1384.21 1966.62 1907.5 2634C2430.79 3301.37 3092.72 3439.46 3386.01 2942.34C3679.3 2445.22 3492.73 1501.59 2969.44 833.742C2446.16 165.898 1784.23 28.2783 1490.94 525.397V525.397Z" stroke="#003061" stroke-width="7"/>
<path d="M1489.84 484.802C1573.63 369.094 1679.01 290.353 1802.29 250.706C1921.62 212.478 2053.09 212.084 2192.92 249.603C2332.75 287.121 2473.92 360.897 2612.95 468.408C2756.49 579.781 2891.03 722.839 3012.81 894.037C3136 1067.56 3237.51 1255.5 3315.08 1453.66C3389.8 1642.05 3441.38 1838.8 3468.71 2039.61C3494.56 2234.53 3493.22 2417.39 3464.76 2583.47C3435.21 2755.06 3378.06 2900.72 3294.04 3016.43C3210.02 3132.14 3104.87 3210.88 2981.52 3250.45C2862.18 3288.75 2730.79 3289.15 2590.96 3251.63C2451.14 3214.11 2309.89 3140.49 2171.25 3032.9C2027.32 2921.37 1892.77 2778.47 1771.08 2607.43C1647.82 2433.79 1546.28 2245.72 1468.72 2047.41C1394.04 1859.04 1342.45 1662.32 1315.1 1461.54C1289.25 1266.62 1290.59 1083.68 1319.12 917.683C1348.6 746.091 1405.82 600.353 1489.84 484.723V484.802ZM1485.51 478.654C1141.07 954.176 1267.57 1908.93 1768.08 2611.21C2268.59 3313.5 2953.54 3497.47 3297.98 3021.95C3642.42 2546.42 3515.92 1591.75 3015.41 889.386C2514.9 187.019 1829.95 3.44722 1485.83 478.891L1485.51 478.654Z" stroke="#003061" stroke-width="7"/>
<path d="M1487.33 438.537C1583.81 328.977 1700.15 257.724 1832.64 226.826C1960.73 196.953 2098.74 205.781 2242.51 252.916C2386.28 300.05 2529.81 383.363 2667.51 500.569C2810.01 621.479 2940.86 773.602 3056.17 952.524C3172.34 1133.32 3265.19 1328.08 3332.51 1532.17C3396.94 1724.79 3436.66 1924.8 3450.74 2127.42C3463.51 2323.68 3448.69 2505.75 3406.6 2669.39C3363.02 2838.53 3292 2979.86 3195.52 3089.42C3099.05 3198.98 2982.71 3270.15 2850.21 3301.13C2722.13 3331 2584.11 3322.17 2440.35 3274.96C2296.58 3227.75 2153.36 3144.51 2015.66 3027.54C1873.08 2906.48 1742.32 2754.35 1627 2575.43C1510.81 2394.61 1417.96 2199.83 1350.66 1995.71C1286.23 1803.12 1246.51 1603.13 1232.43 1400.54C1219.66 1204.28 1234.48 1022.2 1276.57 858.491C1319.84 689.737 1391.25 547.861 1487.33 438.537ZM1483.23 432.232C1086.61 882.453 1149.35 1843.74 1623.38 2579.29C2097.4 3314.84 2803.08 3546.02 3199.78 3095.72C3596.48 2645.42 3533.66 1684.13 3059.64 948.662C2585.61 213.19 1879.94 -18.068 1483.23 432.232V432.232Z" stroke="#003061" stroke-width="7"/>
<path d="M1488.01 392.029C1597.41 289.563 1724.47 226.507 1866.35 204.91C2003.1 184.102 2147.34 202.467 2295.21 259.611C2443.08 316.756 2586.84 409.37 2722.97 536.034C2863.74 666.797 2989.93 827.669 3097.83 1014.24C3206.18 1201.74 3289.37 1402.7 3345.25 1611.93C3398.85 1808.11 3425.94 2010.59 3425.81 2213.96C3424.86 2410.61 3395.85 2591.43 3339.73 2751.51C3281.56 2917.03 3196.6 3053.24 3087.51 3155.78C2978.42 3258.33 2851.05 3321.3 2709.17 3342.9C2572.42 3363.71 2428.1 3345.34 2280.31 3288.2C2132.52 3231.05 1988.68 3138.44 1852.55 3011.78C1711.7 2881.01 1585.59 2720.14 1477.61 2533.57C1369.3 2346.08 1286.06 2145.19 1230.03 1936.04C1176.52 1739.84 1149.43 1537.38 1149.48 1334.01C1150.5 1137.35 1179.43 956.461 1235.63 796.456C1293.8 630.933 1378.77 494.732 1487.85 392.187L1488.01 392.029ZM1484.07 385.566C1034.8 807.097 1029.83 1770.44 1473.51 2537.36C1917.19 3304.28 2641.39 3584.01 3090.9 3162.48C3540.41 2740.95 3545.3 1777.45 3101.62 1010.61C2657.94 243.769 1933.74 -36.1219 1484.23 385.409L1484.07 385.566Z" stroke="#003061" stroke-width="7"/>
<path d="M1492.28 345.684C1610.28 252.651 1753.28 196.817 1903.09 185.285C2048.2 174.014 2198.35 202.389 2349.37 269.701C2500.39 337.014 2644.48 440.032 2778.47 575.524C2916.8 715.745 3037.39 885.051 3137.02 1078.63C3236.71 1272.28 3309.42 1478.65 3353.15 1692.01C3394.93 1891.17 3408.52 2095.2 3393.5 2298.14C3377.74 2494.32 3334.39 2672.69 3263.61 2828.44C3190.38 2989.71 3091.15 3119.45 2968.82 3214.11C2850.74 3307.13 2707.65 3362.91 2557.77 3374.35C2412.67 3385.62 2262.51 3357.25 2111.49 3289.93C1960.47 3222.62 1816.15 3119.76 1682.87 2984.27C1544.62 2844.05 1424.02 2674.74 1324.32 2481.16C1224.66 2287.51 1151.97 2081.14 1108.27 1867.78C1066.46 1668.63 1052.85 1464.59 1067.84 1261.65C1083.6 1065.47 1127.03 887.1 1197.73 731.351C1271.03 570.085 1370.19 440.347 1492.6 345.684H1492.28ZM1489.05 338.827C985.783 727.962 910.431 1688.62 1319.67 2484.47C1728.9 3280.32 2469.1 3610.1 2972.13 3220.97C3475.16 2831.83 3550.91 1871.17 3141.04 1075.32C2731.18 279.475 1991.69 -50.3085 1488.73 338.827H1489.05Z" stroke="#003061" stroke-width="7"/>
<path d="M1500.09 299.734C1632.25 214.805 1785.88 169.309 1942.98 168.578C2096.21 167.395 2251.8 206.254 2405.42 283.97C2559.04 361.687 2703.28 474.242 2833.65 618.799C2968.59 768.557 3082.8 945.666 3173.21 1145.71C3263.42 1344.95 3324.67 1556.07 3355.12 1772.65C3384.4 1974.16 3383.69 2178.89 3353 2380.19C3322.41 2574.72 3263.38 2749.7 3177.7 2900.41C3088.87 3056.16 2975.21 3178.64 2839.8 3264.56C2707.52 3349.51 2553.79 3395.03 2396.59 3395.79C2243.44 3396.9 2087.85 3358.12 1934.15 3280.4C1780.45 3202.68 1636.53 3090.05 1506.24 2945.65C1371.38 2795.89 1257.09 2618.78 1166.68 2418.66C1076.51 2219.41 1015.28 2008.3 984.842 1791.72C955.577 1590.24 956.267 1385.54 986.892 1184.25C1017.55 989.648 1076.51 814.746 1162.27 664.041C1251.02 508.371 1364.68 385.806 1500.17 299.892L1500.09 299.734ZM1496.94 292.877C940.23 645.991 790.235 1599.01 1161.95 2421.5C1533.67 3243.98 2286.16 3624.37 2842.87 3271.26C3399.58 2918.14 3549.65 1965.13 3177.94 1142.64C2806.22 320.149 2053.33 -60.3951 1496.86 292.719L1496.94 292.877Z" stroke="#003061" stroke-width="7"/>
<path d="M1511.68 254.489C1658.01 178.714 1822.2 144.167 1986.66 154.545C2147.61 164.082 2308.16 213.66 2463.75 301.86C2619.34 390.059 2762.72 512.467 2888.83 666.088C3023.28 831.154 3130.58 1016.57 3206.71 1215.39C3286.62 1419.78 3335.47 1634.97 3351.66 1853.83C3367.57 2057 3351.78 2261.41 3304.84 2459.72C3258.42 2651.65 3183.62 2822.29 3082.57 2966.14C2977.9 3115.35 2849.5 3229.64 2701 3305.86C2554.67 3381.63 2390.49 3416.18 2226.03 3405.8C2065.08 3396.26 1904.52 3346.68 1748.93 3258.48C1593.34 3170.28 1450.36 3047.88 1324.17 2894.65C1189.57 2729.49 1082.16 2543.93 1005.97 2344.96C926.021 2140.58 877.161 1925.38 861.024 1706.51C845.079 1503.34 860.874 1298.93 907.843 1100.62C954.268 908.618 1029.07 738.051 1130.12 594.204C1234.79 444.997 1363.11 330.708 1511.68 254.489V254.489ZM1508.85 247.237C898.306 560.626 670.831 1500.87 1000.69 2347.32C1330.56 3193.77 2092.75 3625.79 2703.52 3312.4C3314.3 2999.01 3541.54 2058.76 3211.99 1212.31C2882.45 365.862 2119.39 -66.1519 1508.85 247.237V247.237Z" stroke="#003061" stroke-width="7"/>
<path d="M1527.12 210.114C1687.25 144.618 1861.6 121.673 2033.23 143.511C2201.59 164.319 2366.48 225.011 2523.41 323.851C2680.34 422.692 2821.51 554.794 2942.73 716.376C3071.09 889.1 3170.22 1081.72 3236.18 1286.56C3304.94 1495.15 3340.5 1713.25 3341.56 1932.89C3343.29 2137.06 3311.66 2340.15 3247.92 2534.13C3184.87 2722.35 3093.99 2887.16 2977.25 3023.84C2856.42 3165.32 2713.29 3270.39 2551.63 3336.04C2391.5 3401.67 2217.11 3424.7 2045.44 3402.88C1877.16 3382.15 1712.19 3321.46 1555.26 3222.62C1398.33 3123.78 1257.16 2991.68 1135.94 2830.1C1007.58 2657.37 908.446 2464.75 842.489 2259.91C773.739 2051.32 738.178 1833.22 737.106 1613.59C735.389 1409.46 767.018 1206.43 830.744 1012.5C893.801 824.202 984.68 659.468 1101.41 522.793C1222.24 381.311 1365.38 276.244 1527.04 210.508L1527.12 210.114ZM1524.6 203.099C860.617 472.743 552.667 1394.86 836.892 2262.2C1121.12 3129.53 1890.01 3613.96 2554.15 3343.77C3218.29 3073.57 3526.16 2151.61 3241.93 1284.28C2957.71 416.938 2188.82 -66.9393 1524.68 202.705L1524.6 203.099Z" stroke="#003061" stroke-width="7"/>
<path d="M1546.66 166.998C1720.05 112.795 1904.13 102.102 2082.63 135.864C2258.24 168.338 2426.92 240.458 2584.48 349.861C2746.27 463.754 2885.73 606.427 2995.92 770.76C3117.4 950.58 3207.46 1149.73 3262.26 1359.7C3319.05 1572.22 3340.35 1792.65 3325.31 2012.1C3311.99 2216.49 3263.79 2417.09 3182.8 2605.22C3102.96 2788.64 2995.29 2946.67 2862.72 3074.83C2730.51 3204.52 2569.52 3301.1 2392.87 3356.69C2219.49 3410.95 2035.44 3421.77 1856.89 3388.22C1681.67 3355.75 1512.92 3283.71 1355.36 3174.15C1193.55 3060.28 1054.06 2917.64 943.838 2753.33C822.24 2573.29 732.126 2373.9 677.347 2163.67C620.52 1951.14 599.214 1730.68 614.291 1511.2C627.631 1306.9 675.801 1106.38 756.719 918.312C836.485 734.897 944.232 576.942 1076.81 448.701C1208.99 319.01 1370 222.45 1546.66 166.919V166.998ZM1544.61 159.037C827.421 382.334 436.394 1280.88 671.199 2165.88C906.005 3050.87 1677.73 3587.64 2395 3364.58C3112.26 3141.51 3503.6 2243.2 3268.4 1358.05C3033.2 472.899 2261.79 -63.7091 1544.61 159.352V159.037Z" stroke="#003061" stroke-width="7"/>
<path d="M1570.32 125.304C1756.72 83.2867 1950.36 85.446 2135.78 131.61C2321.45 178.196 2495.42 262.822 2646.69 380.13C2806.95 503.624 2942.97 655.706 3047.89 828.696C3161.79 1015.32 3241.84 1220.59 3284.35 1435.06C3328.45 1650.75 3334.69 1872.46 3302.79 2090.29C3273.45 2294.16 3208.01 2491.17 3109.52 2672.06C3016.9 2843.9 2890.96 2995.56 2739.07 3118.19C2588.97 3239.22 2413.1 3324.18 2225 3366.55C2038.6 3408.53 1844.97 3406.37 1659.55 3360.24C1473.88 3313.66 1299.9 3229.03 1148.63 3111.72C988.378 2988.23 852.356 2836.15 747.44 2663.16C633.535 2476.53 553.486 2271.26 510.979 2056.79C466.929 1841.1 460.742 1619.38 492.693 1401.56C521.932 1197.71 587.271 1000.71 685.645 819.789C778.271 647.951 904.207 496.291 1056.1 373.667C1206.19 252.638 1382.06 167.669 1570.16 125.304H1570.32ZM1568.59 117.422C799.303 290.038 322.678 1158.95 504.279 2058.29C685.881 2957.63 1456.82 3546.81 2226.74 3374.27C2996.65 3201.74 3472.1 2332.9 3290.81 1433.56C3109.52 534.223 2338.27 -54.9577 1568.75 117.58L1568.59 117.422Z" stroke="#003061" stroke-width="7"/>
<path d="M1598.22 85.3413C1796.96 56.4411 1999.63 72.0833 2191.58 131.136C2381.67 189.818 2557.92 286.337 2709.74 414.889C2867.74 547.734 2999.46 708.995 3098.09 890.332C3309.56 1280.38 3371.74 1734.1 3272.99 2166.67C3226.76 2369.15 3143.49 2561.33 3027.39 2733.54C2916.03 2899.94 2772.59 3042.44 2605.46 3152.71C2437.61 3263.36 2247.41 3335.6 2048.42 3364.28C1849.43 3392.96 1646.56 3377.37 1454.3 3318.62C1264.19 3259.92 1087.92 3163.41 936.053 3034.87C778.152 2902.07 646.49 2740.89 547.864 2559.66C336.354 2169.6 274.097 1715.87 372.725 1283.25C418.969 1080.81 502.206 888.657 618.25 716.455C729.656 550.049 873.12 407.523 1040.25 297.21C1208.37 186.353 1398.9 114.006 1598.22 85.3413V85.3413ZM1597.2 77.4593C776.442 195.926 212.247 1029.45 336.862 1939.27C461.477 2849.09 1227.53 3490.61 2048.52 3372.14C2869.51 3253.68 3433.47 2420.23 3308.78 1510.49C3184.08 600.747 2417.87 -40.8499 1597.2 77.5381V77.4593Z" stroke="#003061" stroke-width="7"/>
<path d="M1630.44 47.4288C1840.81 32.299 2051.99 61.8467 2250.13 134.131C2443.9 204.997 2621.76 313.456 2773.49 453.274C2928.44 595.212 3054.96 765.337 3146.31 954.57C3339.51 1355.81 3371.69 1815.81 3236.24 2240.05C3172.1 2440.18 3070.45 2626.28 2936.73 2788.4C2806.05 2948 2645.12 3080.19 2463.18 3177.38C2276.9 3276.46 2071.87 3335.26 1861.4 3349.97C1650.92 3364.67 1439.71 3334.95 1241.46 3262.74C1047.8 3191.96 870.026 3083.64 718.333 2943.99C563.393 2802.02 436.871 2631.87 345.514 2442.62C152.277 2041.33 120.094 1581.26 255.58 1156.98C319.755 956.862 421.399 770.773 555.096 608.629C685.797 449.118 846.73 317.007 1028.65 219.887C1214.83 120.582 1419.92 61.8077 1630.44 47.4288V47.4288ZM1629.89 39.5468C759.477 100.475 105.743 892.539 169.508 1808.98C233.274 2725.42 991.445 3418.57 1861.94 3357.72C2732.43 3296.87 3386.08 2504.73 3322.32 1588.28C3258.55 671.842 2500.38 -21.3024 1629.89 39.5468Z" stroke="#003061" stroke-width="7"/>
<path d="M1667.11 11.882C1994.59 11.6257 2314.79 108.551 2587.15 290.386C2859.52 472.221 3071.8 730.786 3197.12 1033.34C3322.44 1335.9 3355.17 1668.84 3291.15 1990.01C3227.13 2311.17 3069.26 2606.12 2837.51 2837.51C2664.73 3010.01 2455.92 3142.16 2226.06 3224.48C1996.2 3306.79 1750.98 3337.24 1507.97 3313.63C1264.96 3290.02 1030.18 3212.95 820.458 3087.93C610.74 2962.91 431.276 2793.04 294.93 2590.5C158.584 2387.97 68.7335 2157.77 31.8182 1916.42C-5.09704 1675.08 11.8373 1428.55 81.4076 1194.52C150.978 960.484 271.461 744.739 434.221 562.747C596.981 380.756 797.986 237.025 1022.83 141.857C1226.66 55.6281 1445.79 11.4208 1667.11 11.882V11.882ZM1667.11 4C748.614 4 4 748.614 4 1667.11C4 2585.6 748.614 3330.21 1667.11 3330.21C2585.6 3330.21 3330.21 2585.6 3330.21 1667.11C3330.21 748.614 2585.6 4 1667.11 4Z" stroke="#003061" stroke-width="7"/>
</svg>
