<svg width="98" height="98" viewBox="0 0 98 98" fill="none" xmlns="http://www.w3.org/2000/svg">
<mask id="mask0_114_310" style="mask-type:alpha" maskUnits="userSpaceOnUse" x="0" y="0" width="98" height="98">
<path d="M96 49C96 74.9574 74.9574 96 49 96C23.0426 96 2 74.9574 2 49C2 23.0426 23.0426 2 49 2C74.9574 2 96 23.0426 96 49Z" fill="#C4C4C4" stroke="black" stroke-width="3"/>
</mask>
<g mask="url(#mask0_114_310)">
<path d="M158.156 19.2082L54.011 123.354L54.1496 123.492L158.295 19.3468L158.156 19.2082Z" fill="#A8C8FF" stroke="#A8C8FF" stroke-width="3"/>
<path d="M153.768 17.4846L49.6228 121.63L49.7614 121.768L153.907 17.6231L153.768 17.4846Z" fill="#A8C8FF" stroke="#A8C8FF" stroke-width="3"/>
<path d="M149.358 15.759L45.213 119.904L45.3516 120.043L149.497 15.8975L149.358 15.759Z" fill="#A8C8FF" stroke="#A8C8FF" stroke-width="3"/>
<path d="M140.571 12.3176L36.4255 116.463L36.5641 116.601L140.709 12.4561L140.571 12.3176Z" fill="#A8C8FF" stroke="#A8C8FF" stroke-width="3"/>
<path d="M131.784 8.88106L27.6383 113.026L27.7769 113.165L131.922 9.01963L131.784 8.88106Z" fill="#A8C8FF" stroke="#A8C8FF" stroke-width="3"/>
<path d="M122.996 5.44256L18.8508 109.588L18.9894 109.726L123.135 5.58114L122.996 5.44256Z" fill="#A8C8FF" stroke="#A8C8FF" stroke-width="3"/>
<path d="M114.209 2.00311L10.0632 106.148L10.2018 106.287L114.347 2.14169L114.209 2.00311Z" fill="#A8C8FF" stroke="#A8C8FF" stroke-width="3"/>
<path d="M105.421 -1.4383L1.276 102.707L1.41458 102.846L105.56 -1.29972L105.421 -1.4383Z" fill="#A8C8FF" stroke="#A8C8FF" stroke-width="3"/>
<path d="M96.6127 -4.87775L-7.53259 99.2676L-7.39401 99.4062L96.7513 -4.73917L96.6127 -4.87775Z" fill="#A8C8FF" stroke="#A8C8FF" stroke-width="3"/>
<path d="M87.8253 -8.31525L-16.3201 95.8301L-16.1815 95.9687L87.9638 -8.17667L87.8253 -8.31525Z" fill="#A8C8FF" stroke="#A8C8FF" stroke-width="3"/>
<path d="M79.0378 -11.7557L-25.1075 92.3896L-24.969 92.5282L79.1764 -11.6171L79.0378 -11.7557Z" fill="#A8C8FF" stroke="#A8C8FF" stroke-width="3"/>
<path d="M70.2502 -15.1932L-33.8951 88.9521L-33.7566 89.0907L70.3888 -15.0546L70.2502 -15.1932Z" fill="#A8C8FF" stroke="#A8C8FF" stroke-width="3"/>
<path d="M61.4628 -18.6326L-42.6825 85.5127L-42.5439 85.6513L61.6014 -18.4941L61.4628 -18.6326Z" fill="#A8C8FF" stroke="#A8C8FF" stroke-width="3"/>
<path d="M52.6754 -22.0731L-51.47 82.0723L-51.3314 82.2108L52.8139 -21.9345L52.6754 -22.0731Z" fill="#A8C8FF" stroke="#A8C8FF" stroke-width="3"/>
<path d="M43.8775 -25.5203L-60.2678 78.625L-60.1292 78.7636L44.0161 -25.3818L43.8775 -25.5203Z" fill="#A8C8FF" stroke="#A8C8FF" stroke-width="3"/>
</g>
<path d="M35.2812 26V32.2188H45.9688V67.8125H35.2812V74H63.75V67.8125H53.5V26H35.2812Z" fill="white"/>
</svg>
