<svg id="visual" viewBox="0 0 1920 1080" width="1920" height="1080" xmlns="http://www.w3.org/2000/svg" xmlns:xlink="http://www.w3.org/1999/xlink" version="1.1"><path d="M0 387L40 390.7C80 394.3 160 401.7 240 401.3C320 401 400 393 480 360C560 327 640 269 720 262.5C800 256 880 301 960 297.7C1040 294.3 1120 242.7 1200 249.7C1280 256.7 1360 322.3 1440 360.5C1520 398.7 1600 409.3 1680 366.7C1760 324 1840 228 1880 180L1920 132L1920 1081L1880 1081C1840 1081 1760 1081 1680 1081C1600 1081 1520 1081 1440 1081C1360 1081 1280 1081 1200 1081C1120 1081 1040 1081 960 1081C880 1081 800 1081 720 1081C640 1081 560 1081 480 1081C400 1081 320 1081 240 1081C160 1081 80 1081 40 1081L0 1081Z" fill="#0000ff"></path><path d="M0 494L40 480.2C80 466.3 160 438.7 240 421.7C320 404.7 400 398.3 480 390.5C560 382.7 640 373.3 720 397.8C800 422.3 880 480.7 960 473C1040 465.3 1120 391.7 1200 369.5C1280 347.3 1360 376.7 1440 358.8C1520 341 1600 276 1680 287.7C1760 299.3 1840 387.7 1880 431.8L1920 476L1920 1081L1880 1081C1840 1081 1760 1081 1680 1081C1600 1081 1520 1081 1440 1081C1360 1081 1280 1081 1200 1081C1120 1081 1040 1081 960 1081C880 1081 800 1081 720 1081C640 1081 560 1081 480 1081C400 1081 320 1081 240 1081C160 1081 80 1081 40 1081L0 1081Z" fill="#4d28ff"></path><path d="M0 279L40 301C80 323 160 367 240 389.2C320 411.3 400 411.7 480 408.8C560 406 640 400 720 378.8C800 357.7 880 321.3 960 354.5C1040 387.7 1120 490.3 1200 535.7C1280 581 1360 569 1440 555.3C1520 541.7 1600 526.3 1680 531C1760 535.7 1840 560.3 1880 572.7L1920 585L1920 1081L1880 1081C1840 1081 1760 1081 1680 1081C1600 1081 1520 1081 1440 1081C1360 1081 1280 1081 1200 1081C1120 1081 1040 1081 960 1081C880 1081 800 1081 720 1081C640 1081 560 1081 480 1081C400 1081 320 1081 240 1081C160 1081 80 1081 40 1081L0 1081Z" fill="#6c41ff"></path><path d="M0 470L40 476.2C80 482.3 160 494.7 240 493C320 491.3 400 475.7 480 478.5C560 481.3 640 502.7 720 513.7C800 524.7 880 525.3 960 497.2C1040 469 1120 412 1200 418.5C1280 425 1360 495 1440 539.3C1520 583.7 1600 602.3 1680 598C1760 593.7 1840 566.3 1880 552.7L1920 539L1920 1081L1880 1081C1840 1081 1760 1081 1680 1081C1600 1081 1520 1081 1440 1081C1360 1081 1280 1081 1200 1081C1120 1081 1040 1081 960 1081C880 1081 800 1081 720 1081C640 1081 560 1081 480 1081C400 1081 320 1081 240 1081C160 1081 80 1081 40 1081L0 1081Z" fill="#8557ff"></path><path d="M0 593L40 605.7C80 618.3 160 643.7 240 620.5C320 597.3 400 525.7 480 494.3C560 463 640 472 720 502.7C800 533.3 880 585.7 960 595.2C1040 604.7 1120 571.3 1200 554C1280 536.7 1360 535.3 1440 561.3C1520 587.3 1600 640.7 1680 639.2C1760 637.7 1840 581.3 1880 553.2L1920 525L1920 1081L1880 1081C1840 1081 1760 1081 1680 1081C1600 1081 1520 1081 1440 1081C1360 1081 1280 1081 1200 1081C1120 1081 1040 1081 960 1081C880 1081 800 1081 720 1081C640 1081 560 1081 480 1081C400 1081 320 1081 240 1081C160 1081 80 1081 40 1081L0 1081Z" fill="#996cff"></path><path d="M0 532L40 551.2C80 570.3 160 608.7 240 631.5C320 654.3 400 661.7 480 653.5C560 645.3 640 621.7 720 606.8C800 592 880 586 960 593.2C1040 600.3 1120 620.7 1200 626.2C1280 631.7 1360 622.3 1440 601.5C1520 580.7 1600 548.3 1680 557.5C1760 566.7 1840 617.3 1880 642.7L1920 668L1920 1081L1880 1081C1840 1081 1760 1081 1680 1081C1600 1081 1520 1081 1440 1081C1360 1081 1280 1081 1200 1081C1120 1081 1040 1081 960 1081C880 1081 800 1081 720 1081C640 1081 560 1081 480 1081C400 1081 320 1081 240 1081C160 1081 80 1081 40 1081L0 1081Z" fill="#ab81ff"></path><path d="M0 684L40 681.2C80 678.3 160 672.7 240 659.7C320 646.7 400 626.3 480 613.2C560 600 640 594 720 598.3C800 602.7 880 617.3 960 650.3C1040 683.3 1120 734.7 1200 743C1280 751.3 1360 716.7 1440 713.2C1520 709.7 1600 737.3 1680 729.3C1760 721.3 1840 677.7 1880 655.8L1920 634L1920 1081L1880 1081C1840 1081 1760 1081 1680 1081C1600 1081 1520 1081 1440 1081C1360 1081 1280 1081 1200 1081C1120 1081 1040 1081 960 1081C880 1081 800 1081 720 1081C640 1081 560 1081 480 1081C400 1081 320 1081 240 1081C160 1081 80 1081 40 1081L0 1081Z" fill="#bb95ff"></path><path d="M0 846L40 829.5C80 813 160 780 240 757.8C320 735.7 400 724.3 480 717C560 709.7 640 706.3 720 728.5C800 750.7 880 798.3 960 816.8C1040 835.3 1120 824.7 1200 810C1280 795.3 1360 776.7 1440 760C1520 743.3 1600 728.7 1680 736.5C1760 744.3 1840 774.7 1880 789.8L1920 805L1920 1081L1880 1081C1840 1081 1760 1081 1680 1081C1600 1081 1520 1081 1440 1081C1360 1081 1280 1081 1200 1081C1120 1081 1040 1081 960 1081C880 1081 800 1081 720 1081C640 1081 560 1081 480 1081C400 1081 320 1081 240 1081C160 1081 80 1081 40 1081L0 1081Z" fill="#caaaff"></path><path d="M0 877L40 878.8C80 880.7 160 884.3 240 886C320 887.7 400 887.3 480 885.8C560 884.3 640 881.7 720 860.7C800 839.7 880 800.3 960 789.8C1040 779.3 1120 797.7 1200 818.2C1280 838.7 1360 861.3 1440 861.5C1520 861.7 1600 839.3 1680 829.2C1760 819 1840 821 1880 822L1920 823L1920 1081L1880 1081C1840 1081 1760 1081 1680 1081C1600 1081 1520 1081 1440 1081C1360 1081 1280 1081 1200 1081C1120 1081 1040 1081 960 1081C880 1081 800 1081 720 1081C640 1081 560 1081 480 1081C400 1081 320 1081 240 1081C160 1081 80 1081 40 1081L0 1081Z" fill="#d8bfff"></path><path d="M0 912L40 906.5C80 901 160 890 240 877.8C320 865.7 400 852.3 480 859.2C560 866 640 893 720 894.8C800 896.7 880 873.3 960 877.5C1040 881.7 1120 913.3 1200 928C1280 942.7 1360 940.3 1440 919.3C1520 898.3 1600 858.7 1680 858.8C1760 859 1840 899 1880 919L1920 939L1920 1081L1880 1081C1840 1081 1760 1081 1680 1081C1600 1081 1520 1081 1440 1081C1360 1081 1280 1081 1200 1081C1120 1081 1040 1081 960 1081C880 1081 800 1081 720 1081C640 1081 560 1081 480 1081C400 1081 320 1081 240 1081C160 1081 80 1081 40 1081L0 1081Z" fill="#e6d4ff"></path><path d="M0 942L40 931.3C80 920.7 160 899.3 240 894.3C320 889.3 400 900.7 480 915.2C560 929.7 640 947.3 720 959C800 970.7 880 976.3 960 971.3C1040 966.3 1120 950.7 1200 942.5C1280 934.3 1360 933.7 1440 924.5C1520 915.3 1600 897.7 1680 905.2C1760 912.7 1840 945.3 1880 961.7L1920 978L1920 1081L1880 1081C1840 1081 1760 1081 1680 1081C1600 1081 1520 1081 1440 1081C1360 1081 1280 1081 1200 1081C1120 1081 1040 1081 960 1081C880 1081 800 1081 720 1081C640 1081 560 1081 480 1081C400 1081 320 1081 240 1081C160 1081 80 1081 40 1081L0 1081Z" fill="#f3eaff"></path><path d="M0 996L40 992.2C80 988.3 160 980.7 240 981.3C320 982 400 991 480 994.2C560 997.3 640 994.7 720 991.5C800 988.3 880 984.7 960 984C1040 983.3 1120 985.7 1200 984.7C1280 983.7 1360 979.3 1440 984.7C1520 990 1600 1005 1680 1000.3C1760 995.7 1840 971.3 1880 959.2L1920 947L1920 1081L1880 1081C1840 1081 1760 1081 1680 1081C1600 1081 1520 1081 1440 1081C1360 1081 1280 1081 1200 1081C1120 1081 1040 1081 960 1081C880 1081 800 1081 720 1081C640 1081 560 1081 480 1081C400 1081 320 1081 240 1081C160 1081 80 1081 40 1081L0 1081Z" fill="#ffffff"></path></svg>