<svg width="702" height="702" viewBox="0 0 702 702" fill="none" xmlns="http://www.w3.org/2000/svg">
<mask id="mask0_6_16" style="mask-type:alpha" maskUnits="userSpaceOnUse" x="4" y="0" width="694" height="694">
<circle cx="351" cy="347" r="346.5" fill="#ffffff" stroke="black"/>
</mask>
<g mask="url(#mask0_6_16)">
<path d="M-1006 295.281L-966 298.823C-926 302.269 -846 309.353 -766 308.97C-686 308.683 -606 301.025 -526 269.436C-446 237.847 -366 182.327 -286 176.105C-206 169.883 -126 212.959 -46 209.8C34 206.545 114 157.151 194 163.852C274 170.553 354 233.348 434 269.914C514 306.481 594 316.628 674 275.849C754 234.975 834 143.08 874 97.1324L914 51.1848V959.607H874C834 959.607 754 959.607 674 959.607C594 959.607 514 959.607 434 959.607C354 959.607 274 959.607 194 959.607C114 959.607 34 959.607 -46 959.607C-126 959.607 -206 959.607 -286 959.607C-366 959.607 -446 959.607 -526 959.607C-606 959.607 -686 959.607 -766 959.607C-846 959.607 -926 959.607 -966 959.607H-1006V295.281Z" fill="#0000FF"/>
<path d="M-1006 397.706L-966 384.496C-926 371.191 -846 344.771 -766 328.498C-686 312.225 -606 306.098 -526 298.632C-446 291.165 -366 282.167 -286 305.62C-206 329.072 -126 384.975 -46 377.604C34 370.233 114 299.78 194 278.53C274 257.279 354 285.422 434 268.287C514 251.248 594 189.028 674 200.227C754 211.331 834 295.951 874 338.166L914 380.476V959.607H874C834 959.607 754 959.607 674 959.607C594 959.607 514 959.607 434 959.607C354 959.607 274 959.607 194 959.607C114 959.607 34 959.607 -46 959.607C-126 959.607 -206 959.607 -286 959.607C-366 959.607 -446 959.607 -526 959.607C-606 959.607 -686 959.607 -766 959.607C-846 959.607 -926 959.607 -966 959.607H-1006V397.706Z" fill="#4D28FF"/>
<path d="M-1006 191.899L-966 212.959C-926 234.018 -846 276.137 -766 297.387C-686 318.542 -606 318.925 -526 316.149C-446 313.469 -366 307.725 -286 287.432C-206 267.234 -126 232.391 -46 264.171C34 295.951 114 394.164 194 437.623C274 480.986 354 469.499 434 456.385C514 443.367 594 428.625 674 433.124C754 437.623 834 461.171 874 473.041L914 484.815V959.607H874C834 959.607 754 959.607 674 959.607C594 959.607 514 959.607 434 959.607C354 959.607 274 959.607 194 959.607C114 959.607 34 959.607 -46 959.607C-126 959.607 -206 959.607 -286 959.607C-366 959.607 -446 959.607 -526 959.607C-606 959.607 -686 959.607 -766 959.607C-846 959.607 -926 959.607 -966 959.607H-1006V191.899Z" fill="#6C41FF"/>
<path d="M-1006 374.732L-966 380.667C-926 386.506 -846 398.376 -766 396.749C-686 395.122 -606 380.189 -526 382.869C-446 385.549 -366 406.034 -286 416.564C-206 427.093 -126 427.668 -46 400.769C34 373.775 114 319.212 194 325.434C274 331.657 354 398.663 434 441.069C514 483.571 594 501.375 674 497.259C754 493.143 834 466.915 874 453.896L914 440.782V959.607H874C834 959.607 754 959.607 674 959.607C594 959.607 514 959.607 434 959.607C354 959.607 274 959.607 194 959.607C114 959.607 34 959.607 -46 959.607C-126 959.607 -206 959.607 -286 959.607C-366 959.607 -446 959.607 -526 959.607C-606 959.607 -686 959.607 -766 959.607C-846 959.607 -926 959.607 -966 959.607H-1006V374.732Z" fill="#8557FF"/>
<path d="M-1006 492.473L-966 504.63C-926 516.691 -846 541.005 -766 518.797C-686 496.589 -606 428.051 -526 397.993C-446 368.032 -366 376.647 -286 406.034C-206 435.326 -126 485.485 -46 494.579C34 503.673 114 471.701 194 455.141C274 438.58 354 437.24 434 462.129C514 487.017 594 538.134 674 536.698C754 535.262 834 481.273 874 454.375L914 427.381V959.607H874C834 959.607 754 959.607 674 959.607C594 959.607 514 959.607 434 959.607C354 959.607 274 959.607 194 959.607C114 959.607 34 959.607 -46 959.607C-126 959.607 -206 959.607 -286 959.607C-366 959.607 -446 959.607 -526 959.607C-606 959.607 -686 959.607 -766 959.607C-846 959.607 -926 959.607 -966 959.607H-1006V492.473Z" fill="#996CFF"/>
<path d="M-1006 434.081L-966 452.46C-926 470.744 -846 507.502 -766 529.327C-686 551.152 -606 558.236 -526 550.386C-446 542.537 -366 519.946 -286 505.683C-206 491.516 -126 485.772 -46 492.665C34 499.461 114 518.989 194 524.254C274 529.518 354 520.52 434 500.61C514 480.699 594 449.684 674 458.491C754 467.298 834 515.734 874 540.048L914 564.266V959.607H874C834 959.607 754 959.607 674 959.607C594 959.607 514 959.607 434 959.607C354 959.607 274 959.607 194 959.607C114 959.607 34 959.607 -46 959.607C-126 959.607 -206 959.607 -286 959.607C-366 959.607 -446 959.607 -526 959.607C-606 959.607 -686 959.607 -766 959.607C-846 959.607 -926 959.607 -966 959.607H-1006V434.081Z" fill="#AB81FF"/>
<path d="M-1006 579.582L-966 576.902C-926 574.126 -846 568.765 -766 556.321C-686 543.877 -606 524.349 -526 511.809C-446 499.174 -366 493.43 -286 497.547C-206 501.758 -126 515.734 -46 547.323C34 578.912 114 628.114 194 636.059C274 644.004 354 610.884 434 607.534C514 604.183 594 630.603 674 622.945C754 615.287 834 573.551 874 552.588L914 531.72V959.607H874C834 959.607 754 959.607 674 959.607C594 959.607 514 959.607 434 959.607C354 959.607 274 959.607 194 959.607C114 959.607 34 959.607 -46 959.607C-126 959.607 -206 959.607 -286 959.607C-366 959.607 -446 959.607 -526 959.607C-606 959.607 -686 959.607 -766 959.607C-846 959.607 -926 959.607 -966 959.607H-1006V579.582Z" fill="#BB95FF"/>
<path d="M-1006 734.655L-966 718.861C-926 703.066 -846 671.477 -766 650.226C-686 629.071 -606 618.159 -526 611.171C-446 604.183 -366 600.929 -286 622.179C-206 643.43 -126 688.995 -46 706.704C34 724.413 114 714.266 194 700.194C274 686.123 354 668.318 434 652.332C514 636.346 594 622.371 674 629.837C754 637.304 834 666.404 874 680.858L914 695.408V959.607H874C834 959.607 754 959.607 674 959.607C594 959.607 514 959.607 434 959.607C354 959.607 274 959.607 194 959.607C114 959.607 34 959.607 -46 959.607C-126 959.607 -206 959.607 -286 959.607C-366 959.607 -446 959.607 -526 959.607C-606 959.607 -686 959.607 -766 959.607C-846 959.607 -926 959.607 -966 959.607H-1006V734.655Z" fill="#CAAAFF"/>
<path d="M-1006 764.33L-966 766.053C-926 767.871 -846 771.317 -766 772.945C-686 774.572 -606 774.189 -526 772.753C-446 771.317 -366 768.829 -286 748.727C-206 728.625 -126 690.909 -46 680.858C34 670.807 114 688.42 194 708.044C274 727.667 354 749.301 434 749.492C514 749.684 594 728.242 674 718.574C754 708.81 834 710.724 874 711.681L914 712.639V959.607H874C834 959.607 754 959.607 674 959.607C594 959.607 514 959.607 434 959.607C354 959.607 274 959.607 194 959.607C114 959.607 34 959.607 -46 959.607C-126 959.607 -206 959.607 -286 959.607C-366 959.607 -446 959.607 -526 959.607C-606 959.607 -686 959.607 -766 959.607C-846 959.607 -926 959.607 -966 959.607H-1006V764.33Z" fill="#D8BFFF"/>
</g>
</svg>
